<?xml version="1.0" encoding="iso-8859-1"?>
<!-- Generator: Adobe Illustrator 19.0.0, SVG Export Plug-In . SVG Version: 6.00 Build 0)  -->
<svg xmlns="http://www.w3.org/2000/svg" xmlns:xlink="http://www.w3.org/1999/xlink" version="1.1" id="Capa_1" x="0px" y="0px" viewBox="0 0 215.799 215.799" style="enable-background:new 0 0 215.799 215.799;" xml:space="preserve" width="512px" height="512px">
<g>
	<g>
		<path d="M183.82,25.853c-0.828-0.951-2.178-1.348-3.403-1.062c-0.114,0.027-2.908,0.652-12.851,0.652    c-6.726,0-12.576,3.534-15.268,9.223c-2.125,4.49-1.734,9.365,1.017,12.72c5.069,6.182,15.409,0.43,21.074-3.511    c1.167,3.239,2.028,10.11,2.174,17.572c-8.735-1.638-15.606,2.505-19.338,6.328c-13.076-4.777-28.397,4.215-33.584,7.683    c-0.403-0.519-0.889-1.41-1.292-2.86c-0.401-1.451,0.657-7.376,1.43-11.703c2.019-11.291,4.306-24.088-0.2-31.147    c-7.728-12.107-16.821-10.663-34.289-2.848c-4.876,2.185-8.071,5.726-9.492,10.525c-3.729,12.587,6.395,29.662,9.586,34.596    c0.538,0.833,1.318,2.461,0.483,3.994c-1.263,2.323-5.458,3.709-11.22,3.709c-12.271,0-23.197,2.826-26.481,3.763    c-2.343-0.625-8.081-2.048-11.197-1.947c-2.082,0.067-4.867,0.845-7.108,1.594l-1.809-7.98c-0.044-0.198-0.106-0.393-0.186-0.58    c-0.898-2.109-0.022-6.506,1.118-9.902c7.663-0.28,13.005-2.381,15.893-6.257c3.359-4.511,1.971-9.414,1.801-9.958    c-0.046-0.147-0.101-0.288-0.166-0.428c-1.15-2.466-3.202-4.287-5.932-5.263c-9.752-3.483-26.902,4.509-28.826,5.432    c-0.114,0.056-0.229,0.118-0.336,0.186c-5.934,3.721-8.211,17.821-8.864,23.095C0.157,83.251,0.003,108.795,0,109.898    c-0.002,0.678,0.196,1.34,0.572,1.903c4.419,6.635,15.433,7.566,19.084,7.689c13.843,8.784,27.196,6.69,34.135,4.552    c1.749,15.394,16.353,29.394,19.623,32.355c3.28,8.511-2.033,23.4-4.422,28.542c-0.384,0.828-0.423,1.775-0.106,2.628    c0.319,0.853,0.964,1.546,1.794,1.922c8.943,4.043,17.647,5.466,25.475,5.466c18.098,0,31.507-7.61,32.299-8.079    c1.579-0.915,2.157-2.91,1.316-4.528c-2.541-4.883,0.99-14.3,2.874-18.215c25.807-16.509,32.15-46.607,33.599-56.921    c14.423,0.514,31.191-10.708,34.348-12.913c8.861-2.852,15.208-16.099,15.208-23.974C215.799,63.183,193.437,36.845,183.82,25.853    z M198.221,87.89c-0.41,0.108-0.797,0.29-1.14,0.539c-0.198,0.143-19.919,14.28-33.191,11.679    c-0.956-0.186-1.952,0.046-2.729,0.64c-0.777,0.594-1.261,1.493-1.331,2.468c-0.027,0.377-3.051,37.977-31.602,55.639    c-0.517,0.319-0.939,0.771-1.222,1.307c-0.756,1.43-6.624,12.945-4.49,22.067c-6.659,3.043-25.615,10.037-45.955,2.314    c2.567-6.576,7.385-21.521,2.807-31.596c-0.206-0.451-0.507-0.852-0.882-1.174c-0.193-0.169-19.417-16.91-17.963-32.352    c0.116-1.239-0.456-2.44-1.487-3.14c-1.027-0.7-2.367-0.78-3.471-0.215c-0.667,0.34-16.485,8.18-32.974-2.811    c-0.562-0.374-1.222-0.573-1.898-0.573c-0.01-0.002-0.022,0-0.034,0c-2.766,0-10.714-0.742-13.819-3.944    c0.133-7.975,1.372-26.66,5.963-34.439c0.244-0.411,0.398-0.87,0.452-1.347c0.87-7.59,3.391-17.005,5.671-18.702    c6.328-3,18.068-6.948,23.357-5.055c1.123,0.401,1.626,0.964,1.911,1.464c0.113,0.597,0.29,2.278-0.836,3.739    c-1.785,2.314-6.303,3.557-12.708,3.476c-1.439-0.019-2.64,0.806-3.18,2.08c-0.466,1.094-4.402,10.718-2.016,16.973l2.609,11.522    c0.222,0.983,0.865,1.816,1.761,2.278s1.951,0.505,2.879,0.119c2.227-0.927,6.499-2.418,8.482-2.481    c2.046-0.065,7.281,1.166,10.09,1.958c0.64,0.181,1.319,0.171,1.949-0.029c0.121-0.038,12.112-3.741,25.423-3.741    c11.537,0,15.739-4.557,17.217-7.272c1.841-3.384,1.568-7.38-0.748-10.964c-5.49-8.486-11.083-21.159-8.776-28.948    c0.841-2.842,2.717-4.879,5.738-6.231c18.169-8.132,21.489-6.378,25.745,0.29c3.069,4.809,0.761,17.727-0.766,26.274    c-1.345,7.523-2.067,11.918-1.287,14.729c2.266,8.172,7.523,8.429,8.115,8.431c0.005,0,0.01,0,0.015,0    c0.741,0,1.463-0.241,2.057-0.688c5.062-3.821,20.442-12.563,30.636-7.221c1.512,0.79,3.371,0.334,4.362-1.038    c0.273-0.379,6.822-9.195,17.725-4.741c1.041,0.425,2.224,0.311,3.164-0.305c0.939-0.618,1.516-1.659,1.539-2.784    c0.2-9.774-0.41-26.663-6.757-29.967c-1.191-0.62-2.632-0.485-3.685,0.343c-6.19,4.862-13.339,7.846-14.351,6.601    c-1.062-1.295-1.109-3.391-0.126-5.472c1.217-2.57,4.245-5.316,9.098-5.316c6.511,0,10.271-0.263,12.351-0.505    c13.797,15.891,28.523,34.778,29.056,38.562C208.973,75.884,203.766,86.446,198.221,87.89z" fill="#F27D3C"/>
	</g>
</g>
<g>
</g>
<g>
</g>
<g>
</g>
<g>
</g>
<g>
</g>
<g>
</g>
<g>
</g>
<g>
</g>
<g>
</g>
<g>
</g>
<g>
</g>
<g>
</g>
<g>
</g>
<g>
</g>
<g>
</g>
</svg>
