<?xml version="1.0" encoding="iso-8859-1"?>
<!-- Generator: Adobe Illustrator 19.0.0, SVG Export Plug-In . SVG Version: 6.00 Build 0)  -->
<svg version="1.1" id="Layer_1" xmlns="http://www.w3.org/2000/svg" xmlns:xlink="http://www.w3.org/1999/xlink" x="0px" y="0px"
	 viewBox="0 0 512 512" style="enable-background:new 0 0 512 512;" xml:space="preserve">
<g>
	<path style="fill:#EFBF8B;" d="M177.408,95.125l-0.037,36.921h0.037l35.928,16.808l23.847-16.808V29.898
		c0-16.873-13.968-30.484-30.977-29.869c-16.196,0.566-28.798,14.375-28.798,30.583L177.408,95.125L177.408,95.125z"/>
	<path style="fill:#EFBF8B;" d="M274.88,30.562v101.484l26.247,13.525l33.528-13.525V29.898c0-8.258-3.348-15.728-8.75-21.143
		c-5.526-5.514-13.193-8.886-21.66-8.75C287.827,0.287,274.88,14.145,274.88,30.562z"/>
</g>
<g>
	<path style="fill:#E5AE7B;" d="M194.65,30.611v101.434l19.678,19.194l-9.259,7.776l-27.65-26.968V30.613
		c0-16.208,12.602-30.017,28.798-30.583c3.399-0.123,6.674,0.331,9.743,1.257C203.531,5.097,194.65,17.007,194.65,30.611z"/>
	<path style="fill:#E5AE7B;" d="M292.122,30.611v101.434L311.8,151.24l-9.259,7.776l-27.65-26.968V30.613
		c0-16.208,12.602-30.017,28.798-30.583c3.399-0.123,6.674,0.331,9.743,1.257C301.003,5.097,292.122,17.007,292.122,30.611z"/>
</g>
<path style="fill:#FEE572;" d="M177.347,162.53v45.819h0.062l80.233,29.934l77.014-29.934V162.53v-30.484H274.88v25.291
	c0,5.206-2.117,9.907-5.526,13.316c-3.692,3.692-8.923,5.87-14.645,5.477c-9.969-0.677-17.525-9.316-17.525-19.297v-24.786h-59.775
	h-0.037L177.347,162.53z"/>
<path style="fill:#C0E8F6;" d="M148.622,362.987l0.849,0.566l12.996,56.874c10.941-31.567,149.936-36.364,159.991-3.282
	l16.387-14.746l24.916-38.847l-22.411-33.266c-4.357-6.486-6.695-14.116-6.695-21.931V208.348H177.408h-0.062v100.007
	c0,7.815-2.326,15.445-6.695,21.931L148.622,362.987z"/>
<path style="fill:#EFBF8B;" d="M80.452,464.2l68.169-101.213l0.849,0.566l28.971,28.971c10.941-31.567,40.945-54.237,76.242-54.237
	c36.38,0,67.135,24.073,77.19,57.154h0.012l31.875-31.887L431.547,464.2c9.895,13.205,7.2,31.937-6.006,41.832
	c-5.378,4.024-11.667,5.969-17.894,5.969c-9.095,0-18.079-4.135-23.949-11.975l-36.638-47.333
	c1.846-2.745-186.07-1.341-183.424,1.686l-35.333,45.647c-5.87,7.84-14.855,11.975-23.949,11.975
	c-6.227,0-12.516-1.944-17.894-5.969C73.254,496.137,70.559,477.405,80.452,464.2z"/>
<path style="fill:#666666;" d="M324.022,460.274l-72.931-13.452l-65.719,13.452c7.987,13.365,19.728,24.233,33.758,31.137
	c10.732,5.28,22.793,8.246,35.567,8.246c12.775,0,24.836-2.966,35.567-8.246C304.294,484.506,316.035,473.639,324.022,460.274z"/>
<path style="fill:#E5AE7B;" d="M226.083,343.517c-30.435,11.544-52.071,40.97-52.071,75.454c0,2.363,0.098,4.701,0.308,7.003
	c0.751-0.111,1.514-0.16,2.289-0.16l73.698,12.611l82.466-12.611c0.788,0,1.551,0.049,2.301,0.16
	c0.209-2.301,0.308-4.64,0.308-7.003c0-34.484-21.636-63.91-52.071-75.454c-8.886-3.384-18.534-5.23-28.614-5.23
	C244.617,338.287,234.968,340.133,226.083,343.517z"/>
<path style="fill:#EFBF8B;" d="M335.48,418.972c0-34.484-21.623-63.91-52.059-75.454c-4.627-1.76-9.464-3.101-14.461-3.987
	c-4.997,0.874-9.833,2.228-14.461,3.987h-0.012c-30.435,11.544-52.071,40.97-52.071,75.454c0,2.363,0.098,4.701,0.308,7.003
	c0.751-0.111,1.526-0.16,2.301-0.16l61.461,16.245l66.396-16.245c0.775,0,1.538,0.049,2.289,0.16
	C335.381,423.673,335.48,421.334,335.48,418.972z"/>
<path style="fill:#7D7878;" d="M324.12,460.274l-57.56-11.63l-52.785,11.63c11.778,19.716,31.727,33.992,55.172,38.127
	C292.393,494.266,312.342,479.99,324.12,460.274z"/>
<path style="fill:#EAD26C;" d="M163.649,454.379c3.138,3.618,7.79,5.895,12.959,5.895h8.763h138.651h8.75
	c4.75,0,9.058-1.932,12.184-5.046c0.775-0.775,1.477-1.625,2.104-2.548c1.846-2.744,2.941-6.067,2.941-9.636
	c0-8.738-6.498-15.95-14.928-17.07c-0.751-0.111-1.526-0.16-2.301-0.16H176.608c-0.775,0-1.538,0.049-2.289,0.16
	c-3.852,0.505-7.286,2.277-9.895,4.886c-3.114,3.126-5.046,7.433-5.046,12.184C159.379,447.376,160.991,451.339,163.649,454.379z"/>
<path style="fill:#FEE572;" d="M350.002,443.044c0-8.738-6.486-15.95-14.928-17.07c-0.751-0.111-1.514-0.16-2.301-0.16H202.047
	c-0.775,0-1.538,0.049-2.289,0.16c-3.852,0.505-7.286,2.277-9.895,4.886c-3.114,3.114-5.046,7.421-5.046,12.184
	c0,9.513,7.717,17.23,17.23,17.23h130.725c4.763,0,9.07-1.932,12.184-5.046C348.082,452.102,350.002,447.795,350.002,443.044z"/>
<polygon style="fill:#EAD26C;" points="194.675,216.952 194.675,132.046 177.408,132.046 177.384,162.53 177.384,208.349 
	177.445,208.349 "/>
<path style="fill:#AAD6E2;" d="M194.675,328.761V208.349h-17.291v100.019c0,7.803-2.338,15.445-6.695,21.919l-22.03,32.712
	l0.849,0.566l5.07,22.854L194.675,328.761z"/>
<path style="fill:#E5AE7B;" d="M161.877,375.934l-12.369-12.369l-0.849-0.566L80.491,464.2c-6.067,8.098-7.397,18.276-4.48,27.211
	c1.834,5.637,5.378,10.793,10.486,14.621c5.378,4.024,11.667,5.969,17.894,5.969c-15.298-3.68-22.116-21.599-13.132-34.521
	L161.877,375.934z"/>
<path style="fill:#EAD26C;" d="M292.147,141.35v-9.304h-17.23v25.291c0,5.206-2.117,9.907-5.526,13.316
	c-3.138,3.138-7.36,5.169-12.036,5.489l0,0C276.57,176.142,292.147,160.565,292.147,141.35z"/>
<g>
</g>
<g>
</g>
<g>
</g>
<g>
</g>
<g>
</g>
<g>
</g>
<g>
</g>
<g>
</g>
<g>
</g>
<g>
</g>
<g>
</g>
<g>
</g>
<g>
</g>
<g>
</g>
<g>
</g>
</svg>
