<?xml version="1.0" encoding="iso-8859-1"?>
<!-- Generator: Adobe Illustrator 19.0.0, SVG Export Plug-In . SVG Version: 6.00 Build 0)  -->
<svg version="1.1" id="Layer_1" xmlns="http://www.w3.org/2000/svg" xmlns:xlink="http://www.w3.org/1999/xlink" x="0px" y="0px"
	 viewBox="0 0 512 512" style="enable-background:new 0 0 512 512;" xml:space="preserve">
<g>
	<path style="fill:#EFBF8B;" d="M239.488,382.455v96.42c0,15.927-13.185,28.775-29.24,28.194
		c-15.288-0.534-27.183-13.568-27.183-28.868v-95.746l25.313-14.916L239.488,382.455z"/>
	<path style="fill:#EFBF8B;" d="M331.493,382.455v96.42c0,7.795-3.16,14.846-8.26,19.958c-5.111,5.1-12.163,8.26-19.958,8.26
		c-15.578,0-28.206-12.627-28.206-28.217v-96.42l25.662-9.398L331.493,382.455z"/>
</g>
<g>
	<path style="fill:#E5AE7B;" d="M199.328,478.189v-95.746l18.574-18.118l-8.739-7.34l-26.1,25.456v95.746
		c0,15.299,11.896,28.333,27.183,28.868c3.209,0.116,6.3-0.313,9.197-1.186C207.711,502.273,199.328,491.032,199.328,478.189z"/>
	<path style="fill:#E5AE7B;" d="M291.334,478.189v-95.746l18.574-18.118l-8.739-7.34l-26.1,25.456v95.746
		c0,15.299,11.896,28.333,27.183,28.868c3.209,0.116,6.3-0.313,9.197-1.186C299.716,502.273,291.334,491.032,291.334,478.189z"/>
</g>
<path style="fill:#FD6568;" d="M331.493,353.68v28.775H275.07v-23.873c0-4.914-1.998-9.352-5.216-12.569
	c-3.218-3.218-7.667-5.216-12.581-5.216c-9.816,0-17.785,7.969-17.785,17.785v23.873h-56.423V353.68v-43.249l80.783-18.401
	l67.645,18.401V353.68z"/>
<g>
	<polygon style="fill:#373842;" points="161.911,261.631 0,261.631 0.07,276.733 161.911,276.733 	"/>
	<rect x="361.144" y="261.634" style="fill:#373842;" width="150.856" height="15.102"/>
</g>
<polygon style="fill:#606275;" points="485.788,269.191 485.788,316.297 435.681,316.297 435.681,222.073 485.788,222.073 "/>
<polygon style="fill:#515260;" points="447.847,222.073 447.847,316.297 447.847,333.955 409.918,333.955 409.918,269.191 
	409.918,204.427 447.847,204.427 "/>
<polygon style="fill:#606275;" points="70.913,222.073 70.913,316.297 26.226,316.297 26.226,269.191 26.226,222.073 "/>
<polygon style="fill:#6F7282;" points="70.913,246.442 70.913,291.929 26.226,291.929 26.226,269.189 26.226,246.442 "/>
<polygon style="fill:#515260;" points="102.096,269.191 102.096,333.955 64.155,333.955 64.155,316.297 64.155,222.073 
	64.155,204.427 102.096,204.427 "/>
<polygon style="fill:#60616D;" points="102.096,269.191 102.096,300.452 64.155,300.452 64.155,291.929 64.155,246.447 
	64.155,237.93 102.096,237.93 "/>
<polygon style="fill:#6F7282;" points="441.101,246.442 441.101,291.929 485.788,291.929 485.788,269.189 485.788,246.442 "/>
<polygon style="fill:#60616D;" points="409.918,269.191 409.918,300.452 447.859,300.452 447.859,291.929 447.859,246.447 
	447.859,237.93 409.918,237.93 "/>
<path style="fill:#E5AE7B;" d="M285.676,152.755l21.445,63.28c0,16.38-58.743,42.595-75.123,42.595
	c-8.201,0-39.552-41.875-44.919-47.242c-5.367-5.379,13.165-30.474,13.165-38.664l26.091-19.969v-0.465l-6.73-30.738
	c9.108,3.857,25.886,6.195,36.399,6.195c9.851,0,27.756-17.495,36.399-20.91l-6.73,45.453v0.465H285.676z"/>
<path style="fill:#FEE572;" d="M383.734,208.528c-1.046-31.272-27.369-55.772-58.653-55.772h-39.404v19.969
	c0,16.38-13.29,29.669-29.669,29.669c-8.201,0-15.613-3.322-20.98-8.689c-5.367-5.379-8.689-12.79-8.689-20.98v-19.969h-37.336
	c-31.296,0-57.608,24.5-58.653,55.772c-0.023,0.697-0.035,1.406-0.035,2.114v58.549h0.07c0.418-6.517,51.253-13.627,52.136,0
	l0.546,41.24h148.428v-41.24h0.07c0.883-13.627,51.718-6.517,52.136,0h0.07v-58.549
	C383.769,209.933,383.757,209.225,383.734,208.528z"/>
<g>
	<path style="fill:#E5AE7B;" d="M331.876,74.458c0.198,2.172,0.29,4.38,0.29,6.61c0,32.202-19.981,59.745-48.233,70.874
		c-8.643,3.415-18.076,5.286-27.927,5.286c-10.513,0-20.539-2.126-29.646-5.983c-27.334-11.559-46.514-38.626-46.514-70.177
		c0-2.23,0.093-4.438,0.29-6.61c0.709,0.105,1.429,0.151,2.161,0.151l76.807-15.012l70.599,15.012
		C330.448,74.609,331.168,74.563,331.876,74.458z"/>
	<rect x="130.387" y="227.655" style="fill:#E5AE7B;" width="52.508" height="41.538"/>
	<rect x="331.254" y="227.655" style="fill:#E5AE7B;" width="52.508" height="41.538"/>
</g>
<path style="fill:#666666;" d="M321.445,42.082l-69.548,11.855l-61.328-11.855c13.29-22.258,37.615-37.174,65.438-37.174
	S308.155,19.824,321.445,42.082z"/>
<g>
	<circle style="fill:#EFBF8B;" cx="156.455" cy="271.055" r="26.255"/>
	<circle style="fill:#EFBF8B;" cx="357.636" cy="271.055" r="26.255"/>
</g>
<path style="fill:#E0555C;" d="M341.205,46.845c2.951,2.939,4.763,7.005,4.763,11.501c0,8.248-6.122,15.055-14.091,16.113
	c-0.709,0.105-1.429,0.151-2.172,0.151H182.298c-0.732,0-1.452-0.046-2.161-0.151c-3.636-0.476-6.877-2.149-9.34-4.612
	c-2.939-2.939-4.763-7.005-4.763-11.501c0-8.991,7.284-16.264,16.264-16.264h8.271h130.875h8.26
	C334.2,42.082,338.266,43.906,341.205,46.845z"/>
<path style="fill:#EFBF8B;" d="M332.155,81.056c0,32.55-20.411,60.326-49.139,71.223c-4.368,1.661-8.933,2.927-13.65,3.764
	c-4.716-0.825-9.282-2.103-13.65-3.764h-0.012c-28.728-10.897-49.151-38.672-49.151-71.223c0-2.23,0.093-4.438,0.29-6.61
	c0.709,0.105,1.44,0.151,2.172,0.151l58.014-15.334l62.673,15.334c0.732,0,1.452-0.046,2.161-0.151
	C332.062,76.619,332.155,78.826,332.155,81.056z"/>
<path style="fill:#7D7878;" d="M321.433,42.07l-54.332,10.978L217.276,42.07c11.117-18.61,29.948-32.086,52.078-35.989
	C291.485,9.985,310.316,23.46,321.433,42.07z"/>
<path style="fill:#FD6568;" d="M345.968,58.334c0,8.26-6.145,15.067-14.103,16.113c-0.709,0.105-1.429,0.151-2.161,0.151H210.806
	c-0.732,0-1.464-0.046-2.172-0.151c-3.613-0.476-6.866-2.149-9.328-4.612c-2.939-2.939-4.763-7.005-4.763-11.501
	c0-8.98,7.284-16.264,16.264-16.264h118.898c4.496,0,8.562,1.824,11.501,4.763C344.144,49.784,345.968,53.85,345.968,58.334z"/>
<polygon style="fill:#E0555C;" points="199.328,306.283 199.328,382.455 183.065,382.455 183.065,310.431 "/>
<path style="fill:#EAD26C;" d="M183.065,218.359v92.071h16.264v-75.808C199.328,225.641,192.047,218.359,183.065,218.359
	L183.065,218.359z"/>
<path style="fill:#E0555C;" d="M262.27,340.797c16.058,0,29.076,13.018,29.076,29.076v12.571l-0.035,0.012h-16.24v-23.873
	c0-4.914-1.998-9.352-5.216-12.569s-7.667-5.216-12.581-5.216L262.27,340.797L262.27,340.797z"/>
<g>
</g>
<g>
</g>
<g>
</g>
<g>
</g>
<g>
</g>
<g>
</g>
<g>
</g>
<g>
</g>
<g>
</g>
<g>
</g>
<g>
</g>
<g>
</g>
<g>
</g>
<g>
</g>
<g>
</g>
</svg>
