<?xml version="1.0" encoding="iso-8859-1"?>
<!-- Generator: Adobe Illustrator 19.0.0, SVG Export Plug-In . SVG Version: 6.00 Build 0)  -->
<svg version="1.1" id="Layer_1" xmlns="http://www.w3.org/2000/svg" xmlns:xlink="http://www.w3.org/1999/xlink" x="0px" y="0px"
	 viewBox="0 0 511.999 511.999" style="enable-background:new 0 0 511.999 511.999;" xml:space="preserve">
<g>
	<path style="fill:#EFBF8B;" d="M210.08,379.952v102.147c0,16.873-13.968,30.484-30.977,29.869
		c-16.196-0.566-28.798-14.374-28.798-30.583v-64.513l-0.025-36.921h0.025l34.644-12.245L210.08,379.952z"/>
	<path style="fill:#EFBF8B;" d="M307.551,379.952v102.147c0,8.258-3.348,15.728-8.75,21.143c-5.526,5.514-13.193,8.886-21.66,8.75
		c-16.405-0.283-29.364-14.141-29.364-30.558V379.952l27.014-13.476L307.551,379.952z"/>
</g>
<g>
	<path style="fill:#E5AE7B;" d="M167.535,481.398V379.964l19.678-19.194l-9.258-7.775l-27.65,26.968v101.434
		c0,16.208,12.602,30.017,28.798,30.583c3.399,0.123,6.674-0.331,9.743-1.257C176.416,506.912,167.535,495.003,167.535,481.398z"/>
	<path style="fill:#E5AE7B;" d="M265.006,481.398V379.964l19.678-19.194l-9.258-7.775l-27.65,26.968v101.434
		c0,16.208,12.602,30.017,28.798,30.583c3.399,0.123,6.674-0.331,9.743-1.257C273.887,506.912,265.006,495.003,265.006,481.398z"/>
</g>
<path style="fill:#FEE572;" d="M307.551,303.649v76.303h-59.775v-25.291c0-5.206-2.117-9.907-5.526-13.316
	c-3.126-3.126-7.347-5.169-12.024-5.477c-0.861-0.062-1.735-0.062-2.621,0c-9.956,0.677-17.525,9.316-17.525,19.297v24.786h-59.799
	l-0.025-30.484v-45.819h0.049l17.23-2.757l70.949-11.335L307.551,303.649z"/>
<polygon style="fill:#EAD26C;" points="167.535,300.892 167.535,379.952 150.281,379.952 150.257,349.467 150.257,303.649 
	150.306,303.649 "/>
<path style="fill:#FD6568;" d="M307.551,203.643v38.816l6.006,7.101l-6.006,8.898v45.191H150.257v-34.656l-12.073-7.741l12.073-8.59
	v-49.018c0-7.815-2.338-15.445-6.695-21.919l-21.919-32.552l-0.111-0.16l0.825-0.554l0.025-0.025l14.941-77.94
	c10.929,31.58,164.728,47.529,174.795,14.436l24.54,63.516l-22.411,33.278C309.89,188.197,307.551,195.828,307.551,203.643z"/>
<path style="fill:#EFBF8B;" d="M398.438,5.969C393.06,1.944,386.771,0,380.544,0c-9.095,0-18.079,4.135-23.949,11.975l-36.65,47.345
	c1.858,2.744-186.056,1.329-183.398-1.698l-35.333-45.646C95.343,4.135,86.359,0,77.264,0C71.037,0,64.748,1.944,59.37,5.969
	C46.165,15.864,43.469,34.595,53.364,47.8l68.168,101.212l0.849-0.566l28.958-28.97c10.929,31.58,40.933,54.249,76.241,54.249
	c36.379,0,67.134-24.072,77.201-57.166l31.875,31.887L404.444,47.8C414.338,34.595,411.643,15.864,398.438,5.969z"/>
<path style="fill:#E5AE7B;" d="M77.978,47.8c-9.895-13.205-7.2-31.936,6.006-41.831c1.785-1.335,3.676-2.42,5.625-3.302
	C85.719,0.911,81.506,0,77.264,0C71.037,0,64.748,1.944,59.37,5.969C46.165,15.864,43.469,34.595,53.364,47.8l68.168,101.212
	l0.849-0.566l13.971-13.976L77.978,47.8z"/>
<path style="fill:#EAAC60;" d="M464.6,287.453c0,14.83-19.297,26.078-58.987,34.373c-34.459,7.2-80.167,11.162-128.693,11.162
	s-94.234-3.963-128.693-11.162c-39.69-8.295-58.987-19.543-58.987-34.373c0-12.012,12.639-21.66,38.496-29.29
	c6.092-1.809,12.922-3.495,20.491-5.083c0.677-0.135,1.354-0.283,2.031-0.418v16.331c-6.203,1.329-11.593,2.671-16.257,4.012
	c-23.186,6.633-28.761,12.971-28.761,14.448c0,1.797,8.233,10.769,46.262,18.707c33.413,6.99,77.964,10.83,125.42,10.83
	s92.007-3.84,125.42-10.83c38.028-7.938,46.262-16.91,46.262-18.707c0-1.797-8.233-10.769-46.262-18.719
	c-17.71-3.704-38.558-6.51-61.301-8.344c-10.781-0.861-21.98-1.514-33.487-1.932v-15.999c11.482,0.406,22.682,1.034,33.487,1.895
	c23.925,1.871,45.905,4.824,64.574,8.726C445.303,261.374,464.6,272.611,464.6,287.453z"/>
<path style="fill:#666666;" d="M296.906,51.738L223.975,65.19l-65.719-13.451c7.987-13.365,19.728-24.232,33.758-31.137
	c10.732-5.28,22.792-8.246,35.567-8.246c12.775,0,24.835,2.966,35.567,8.246C277.178,27.506,288.919,38.373,296.906,51.738z"/>
<path style="fill:#E5AE7B;" d="M198.967,168.494c-30.435-11.544-52.071-40.97-52.071-75.454c0-2.363,0.098-4.701,0.308-7.003
	c0.751,0.111,1.514,0.16,2.289,0.16l73.698-12.611l82.465,12.611c0.788,0,1.551-0.049,2.301-0.16
	c0.209,2.301,0.308,4.64,0.308,7.003c0,34.484-21.636,63.91-52.071,75.454c-8.886,3.384-18.534,5.23-28.614,5.23
	S207.853,171.878,198.967,168.494z"/>
<path style="fill:#E0555C;" d="M167.535,175.718v127.93h-17.279v-34.656l-12.073-7.741l12.073-8.59v-49.018
	c0-7.815-2.338-15.445-6.695-21.919l-21.919-32.552l0.714-0.714l0.025-0.025l13.968-13.968L167.535,175.718z"/>
<path style="fill:#EFBF8B;" d="M308.364,93.04c0,34.484-21.623,63.91-52.058,75.454c-4.627,1.76-9.464,3.101-14.461,3.987
	c-4.997-0.874-9.833-2.228-14.461-3.987h-0.012c-30.435-11.544-52.071-40.97-52.071-75.454c0-2.363,0.098-4.701,0.308-7.003
	c0.751,0.111,1.526,0.16,2.301,0.16l61.461-16.245l66.396,16.245c0.775,0,1.538-0.049,2.289-0.16
	C308.265,88.339,308.364,90.677,308.364,93.04z"/>
<path style="fill:#7D7878;" d="M297.004,51.738l-57.559,11.63l-52.784-11.63c11.778-19.716,31.727-33.992,55.172-38.127
	C265.277,17.747,285.227,32.023,297.004,51.738z"/>
<g>
	<path style="fill:#D89955;" d="M341.038,244.354v16.036c-10.781-0.861-21.98-1.514-33.487-1.932v-15.999
		C319.034,242.865,330.233,243.492,341.038,244.354z"/>
	<path style="fill:#D89955;" d="M150.257,252.661v16.331c-6.203,1.329-11.593,2.671-16.257,4.012l-6.264-14.842
		c6.092-1.809,12.922-3.495,20.491-5.083C148.903,252.944,149.58,252.797,150.257,252.661z"/>
</g>
<path style="fill:#EAD26C;" d="M136.534,57.633c3.138-3.618,7.79-5.895,12.959-5.895h8.763h138.65h8.75
	c4.75,0,9.058,1.932,12.184,5.046c0.775,0.775,1.477,1.625,2.104,2.548c1.846,2.744,2.941,6.067,2.941,9.636
	c0,8.738-6.498,15.95-14.928,17.07c-0.751,0.111-1.526,0.16-2.301,0.16H149.493c-0.775,0-1.538-0.049-2.289-0.16
	c-3.852-0.505-7.286-2.277-9.895-4.886c-3.114-3.126-5.046-7.433-5.046-12.184C132.264,64.636,133.876,60.673,136.534,57.633z"/>
<path style="fill:#FEE572;" d="M322.886,68.968c0,8.738-6.486,15.95-14.928,17.07c-0.751,0.111-1.514,0.16-2.301,0.16H174.932
	c-0.775,0-1.538-0.049-2.289-0.16c-3.852-0.505-7.286-2.277-9.895-4.886c-3.114-3.114-5.046-7.421-5.046-12.184
	c0-9.513,7.716-17.23,17.23-17.23h130.724c4.763,0,9.07,1.932,12.184,5.046C320.966,59.91,322.886,64.218,322.886,68.968z"/>
<path style="fill:#EAD26C;" d="M265.006,370.648v9.304h-17.23v-25.291c0-5.206-2.117-9.907-5.526-13.316
	c-3.126-3.126-7.347-5.169-12.024-5.477l0,0C249.434,335.868,265.006,351.439,265.006,370.648z"/>
<g>
</g>
<g>
</g>
<g>
</g>
<g>
</g>
<g>
</g>
<g>
</g>
<g>
</g>
<g>
</g>
<g>
</g>
<g>
</g>
<g>
</g>
<g>
</g>
<g>
</g>
<g>
</g>
<g>
</g>
</svg>
