<?xml version="1.0" encoding="iso-8859-1"?>
<!-- Generator: Adobe Illustrator 19.0.0, SVG Export Plug-In . SVG Version: 6.00 Build 0)  -->
<svg version="1.1" id="Layer_1" xmlns="http://www.w3.org/2000/svg" xmlns:xlink="http://www.w3.org/1999/xlink" x="0px" y="0px"
	 viewBox="0 0 512 512" style="enable-background:new 0 0 512 512;" xml:space="preserve">
<g>
	<path style="fill:#EFBF8B;" d="M237.959,384.927v98.304c0,16.238-13.443,29.337-29.811,28.745
		c-15.587-0.545-27.715-13.834-27.715-29.432v-97.617l30.569-18.859L237.959,384.927z"/>
	<path style="fill:#EFBF8B;" d="M331.763,384.927v98.304c0,7.947-3.222,15.137-8.421,20.348c-5.211,5.199-12.401,8.421-20.348,8.421
		c-15.883,0-28.757-12.874-28.757-28.769v-98.304l30.727-12.543L331.763,384.927z"/>
</g>
<g>
	<path style="fill:#E5AE7B;" d="M197.026,482.532v-97.617l18.937-18.472l-8.91-7.483l-26.61,25.954v97.617
		c0,15.598,12.128,28.887,27.715,29.432c3.271,0.118,6.423-0.319,9.377-1.209C205.573,507.087,197.026,495.626,197.026,482.532z"/>
	<path style="fill:#E5AE7B;" d="M290.83,482.532v-97.617l18.937-18.472l-8.91-7.483l-26.61,25.954v97.617
		c0,15.598,12.128,28.887,27.715,29.432c3.271,0.118,6.423-0.319,9.377-1.209C299.377,507.087,290.83,495.626,290.83,482.532z"/>
</g>
<path style="fill:#666666;" d="M321.518,37.9l-73.162,16.824L188.084,37.9C201.634,15.208,226.435,0,254.801,0
	S307.968,15.208,321.518,37.9z"/>
<g>
	<path style="fill:#E5AE7B;" d="M285.05,150.264l20.703,42.883c0,16.7-34.241,30.249-50.952,30.249
		c-8.35,0-15.918-3.387-21.39-8.859c-5.472-5.484-31.094-13.04-31.094-21.39l22.235-42.883l14.086-20.285
		c8.551,3.257,6.463,6.316,16.163,6.316s7.659-5.428,16.211-8.685L285.05,150.264z"/>
	<path style="fill:#E5AE7B;" d="M332.153,70.909c0.201,2.215,0.296,4.465,0.296,6.739c0,33.187-20.822,61.505-50.112,72.615
		c-8.551,3.257-17.837,5.034-27.537,5.034c-9.7,0-18.986-1.777-27.537-5.034c-29.29-11.11-50.112-39.428-50.112-72.615
		c0-2.274,0.095-4.524,0.296-6.739c0.722,0.107,1.469,0.154,2.215,0.154l68.692-16.339l81.595,16.339
		C330.697,71.063,331.431,71.016,332.153,70.909z"/>
</g>
<path style="fill:#EFBF8B;" d="M332.45,77.637c0,33.187-20.81,61.505-50.1,72.615c-4.453,1.694-9.108,2.985-13.917,3.837
	c-4.809-0.841-9.463-2.144-13.917-3.837h-0.012c-29.29-11.11-50.112-39.428-50.112-72.615c0-2.274,0.095-4.524,0.296-6.739
	c0.722,0.107,1.469,0.154,2.215,0.154l59.148-15.634l63.898,15.634c0.746,0,1.48-0.047,2.203-0.154
	C332.355,73.112,332.45,75.363,332.45,77.637z"/>
<path style="fill:#E0555C;" d="M341.676,42.756c2.996,2.997,4.856,7.142,4.856,11.725c0,8.409-6.265,15.362-14.379,16.427
	c-0.722,0.107-1.457,0.154-2.203,0.154H179.663c-0.746,0-1.492-0.047-2.215-0.154c-3.683-0.486-7-2.203-9.511-4.702
	c-2.997-2.997-4.856-7.142-4.856-11.725c0-9.167,7.426-16.581,16.581-16.581h8.421h133.433h8.433
	C334.534,37.9,338.679,39.76,341.676,42.756z"/>
<path style="fill:#7D7878;" d="M321.518,37.889l-55.394,11.192l-50.798-11.192c11.335-18.974,30.534-32.713,53.096-36.692
	C290.984,5.176,310.183,18.915,321.518,37.889z"/>
<path style="fill:#FD6568;" d="M346.532,54.47c0,8.421-6.265,15.362-14.379,16.427c-0.722,0.107-1.457,0.154-2.203,0.154H208.728
	c-0.746,0-1.492-0.047-2.215-0.154c-3.683-0.486-7-2.191-9.511-4.702c-2.997-2.997-4.856-7.142-4.856-11.725
	c0-9.155,7.426-16.581,16.581-16.581h121.222c4.584,0,8.729,1.859,11.725,4.856C344.672,45.753,346.532,49.898,346.532,54.47z"/>
<path style="fill:#EFBF8B;" d="M428.812,279.848c9.345,12.483,7.604,30.391-4.548,40.175c-12.744,10.28-31.363,7.853-41.086-5.14
	l-51.414-68.647l6.364-30.19l34.746-10.908L428.812,279.848z"/>
<path style="fill:#E5AE7B;" d="M331.763,246.235l51.414,68.647c7.527,10.058,20.383,13.778,31.719,10.18
	c-5.539-1.748-10.604-5.177-14.349-10.18l-75.253-101.206"/>
<path style="fill:#EFBF8B;" d="M180.433,246.235l-51.414,68.647c-5.65,7.545-14.296,11.524-23.048,11.524
	c-5.993,0-12.045-1.871-17.221-5.744c-12.709-9.522-15.302-27.549-5.78-40.257l56.365-75.268l36.528,9.721L180.433,246.235z"/>
<path style="fill:#E5AE7B;" d="M106.12,320.662c-12.708-9.522-15.302-27.549-5.78-40.257l53.479-71.413l-14.484-3.855L82.97,280.404
	c-9.522,12.708-6.929,30.735,5.78,40.257c5.176,3.873,11.228,5.744,17.221,5.744c2.949,0,5.884-0.463,8.698-1.35
	C111.673,324.105,108.78,322.652,106.12,320.662z"/>
<path style="fill:#FD6568;" d="M331.763,311.495v73.432h-57.526v-24.339c0-5.01-2.037-9.534-5.318-12.815
	c-3.281-3.281-7.817-5.318-12.827-5.318c-10.008,0-18.133,8.125-18.133,18.133v24.339h-57.526v-73.432l77.151-24.387
	L331.763,311.495z"/>
<path style="fill:#C0E8F6;" d="M372.873,205.136l-41.11,41.098v65.26h-151.33v-65.26l-41.098-41.098l14.651-19.566
	c8.326-11.11,19.021-19.933,31.114-25.986c12.081-6.052,25.559-9.321,39.452-9.321v20.833c0,8.35,3.387,15.906,8.859,21.39
	c5.472,5.472,13.04,8.859,21.39,8.859c16.712,0,30.249-13.549,30.249-30.249v-20.833h2.594c27.774,0,53.913,13.088,70.566,35.307
	L372.873,205.136z"/>
<polygon style="fill:#E0555C;" points="197.026,307.254 197.026,384.915 180.445,384.915 180.445,311.483 "/>
<path style="fill:#AAD6E2;" d="M180.445,246.049v65.434h16.581V262.63C197.026,253.473,189.603,246.049,180.445,246.049
	L180.445,246.049z"/>
<path style="fill:#E0555C;" d="M261.186,342.455c16.372,0,29.644,13.272,29.644,29.644v12.816l-0.036,0.012h-16.558v-24.339
	c0-5.01-2.037-9.534-5.318-12.815c-3.281-3.281-7.817-5.318-12.827-5.318L261.186,342.455L261.186,342.455z"/>
<path style="fill:#AAD6E2;" d="M224.552,150.264v17.872l0,0c-23.008,0-44.778,10.416-59.215,28.331l-15.473,19.199l-10.529-10.529
	l14.651-19.566c8.326-11.11,19.021-19.933,31.114-25.986C197.18,153.532,210.659,150.264,224.552,150.264z"/>
<g>
</g>
<g>
</g>
<g>
</g>
<g>
</g>
<g>
</g>
<g>
</g>
<g>
</g>
<g>
</g>
<g>
</g>
<g>
</g>
<g>
</g>
<g>
</g>
<g>
</g>
<g>
</g>
<g>
</g>
</svg>
