<?xml version="1.0" encoding="iso-8859-1"?>
<!-- Generator: Adobe Illustrator 19.0.0, SVG Export Plug-In . SVG Version: 6.00 Build 0)  -->
<svg version="1.1" id="Layer_1" xmlns="http://www.w3.org/2000/svg" xmlns:xlink="http://www.w3.org/1999/xlink" x="0px" y="0px"
	 viewBox="0 0 512 512" style="enable-background:new 0 0 512 512;" xml:space="preserve">
<g>
	<path style="fill:#EFBF8B;" d="M326.291,394.32v91.034c0,7.357-2.983,14.019-7.793,18.841c-4.822,4.822-11.484,7.805-18.841,7.805
		c-14.714,0-26.635-11.92-26.635-26.646V394.32l25.432-18.991L326.291,394.32z"/>
	<path style="fill:#EFBF8B;" d="M239.419,394.32v91.034c0,15.045-12.439,27.165-27.601,26.623
		c-14.432-0.507-25.668-12.816-25.668-27.259V394.32l25.841-19.776L239.419,394.32z"/>
</g>
<g>
	<path style="fill:#E5AE7B;" d="M206.194,484.717V394.32l16.118-12.335l-10.32-7.441L186.15,394.32v90.397
		c0,14.443,11.236,26.753,25.668,27.259c3.92,0.14,7.657-0.572,11.045-1.957C213.019,505.933,206.194,495.973,206.194,484.717z"/>
	<path style="fill:#E5AE7B;" d="M293.066,484.717V394.32l16.118-12.335l-10.32-7.441l-25.841,19.776v90.397
		c0,14.443,11.236,26.753,25.668,27.259c3.92,0.14,7.657-0.572,11.045-1.957C299.891,505.933,293.066,495.973,293.066,484.717z"/>
</g>
<path style="fill:#FEE572;" d="M96.151,298.382l-14.329-96.4c-7.539-50.711,7.342-102.063,40.822-140.888S204.732,0,256,0
	c51.277,0,99.889,22.273,133.369,61.11c33.481,38.835,48.355,90.197,40.802,140.915l-14.272,95.862l-11.662-1.737l14.272-95.862
	c7.046-47.322-6.83-95.244-38.07-131.48S303.844,11.79,256.001,11.79c-47.835,0-93.188,20.777-124.427,57.003
	s-45.123,84.139-38.09,131.454l14.329,96.4L96.151,298.382z"/>
<path style="fill:#E5AE7B;" d="M283.032,176.998l14.635,64.706c0,15.481-26.195,11.473-41.664,11.473
	c-7.735,0-42.875-13.478-47.943-18.548c-5.07-5.07-12.577-30.608-12.577-38.343l31.519-19.289l2.511-27.26
	c7.923,3.007,16.518-0.786,25.503-0.786c8.984,0,4.138,6.084,12.062,3.077L283.032,176.998z"/>
<path style="fill:#666666;" d="M316.812,72.936l-48.565,8.076l-11.449,1.91l-63.562-9.987c12.545-21.011,35.513-35.1,61.782-35.1
	c4.021,0,7.947,0.33,11.79,0.967C288.066,42.304,306.177,55.132,316.812,72.936z"/>
<path style="fill:#7D7878;" d="M316.812,72.936l-48.565,8.076l-51.43-8.076c10.623-17.804,28.733-30.632,49.991-34.133
	C288.066,42.304,306.177,55.132,316.812,72.936z"/>
<path style="fill:#E5AE7B;" d="M326.928,109.745c0,30.738-19.277,56.96-46.407,67.253c-4.091,1.545-8.348,2.735-12.757,3.525
	c-4.127,0.743-8.395,1.132-12.745,1.132c-8.984,0-17.58-1.651-25.503-4.657c-27.13-10.293-46.407-36.515-46.407-67.253
	c0-2.075,0.094-4.127,0.271-6.155c0.448,0.035,0.908,0.059,1.368,0.059l67.583-13.901l13.229,2.523l59.73,11.378
	c0.472,0,0.931-0.024,1.379-0.059C326.845,105.619,326.928,107.67,326.928,109.745z"/>
<g>
	<path style="fill:#EFBF8B;" d="M326.928,109.745c0,30.738-19.277,56.96-46.407,67.253c-4.091,1.545-8.348,2.735-12.757,3.525
		c-4.41-0.778-8.678-1.969-12.769-3.525c-27.13-10.293-46.407-36.515-46.407-67.253c0-2.075,0.094-4.127,0.271-6.155
		c0.448,0.035,0.908,0.059,1.368,0.059l55.333-11.378l59.73,11.378c0.472,0,0.931-0.024,1.379-0.059
		C326.845,105.619,326.928,107.67,326.928,109.745z"/>
	<path style="fill:#EFBF8B;" d="M416.17,297.001c8.654,11.566,7.039,28.144-4.209,37.211c-11.802,9.515-29.052,7.275-38.048-4.763
		l-47.622-63.574l9.892-28.1l28.167-9.959h0.012L416.17,297.001z"/>
</g>
<path style="fill:#E5AE7B;" d="M403.635,338.763c-10.588,3.525-22.685,0.106-29.724-9.314l-47.622-63.574l5.589-15.87l58.834,79.444
	C394.098,333.976,398.649,337.112,403.635,338.763z"/>
<path style="fill:#EFBF8B;" d="M186.15,265.875l-47.61,63.574c-5.235,6.992-13.241,10.67-21.352,10.67
	c-5.542,0-11.154-1.733-15.941-5.318c-11.779-8.819-14.172-25.515-5.353-37.281l52.196-69.705l26.955,11.53L186.15,265.875z"/>
<path style="fill:#E5AE7B;" d="M119.325,334.801c-11.779-8.819-14.172-25.514-5.353-37.281l47.81-63.849l-13.693-5.856
	L95.893,297.52c-8.819,11.767-6.426,28.462,5.353,37.281c4.787,3.584,10.399,5.318,15.941,5.318c3.095,0,6.172-0.539,9.088-1.589
	C123.846,337.655,121.498,336.429,119.325,334.801z"/>
<path style="fill:#FD6568;" d="M326.669,103.591c-0.448,0.035-0.908,0.059-1.38,0.059H184.747c-0.46,0-0.92-0.024-1.368-0.059
	c-7.463-0.696-13.3-6.968-13.3-14.608v-1.368c0-8.1,6.567-14.679,14.667-14.679h8.489h123.576h8.477
	c8.112,0,14.679,6.579,14.679,14.679v1.368C339.968,96.611,334.132,102.883,326.669,103.591z"/>
<path style="fill:#E0555C;" d="M201.914,88.982v-1.368c0-8.1,6.567-14.679,14.667-14.679h-23.345h-8.489
	c-8.1,0-14.667,6.579-14.667,14.679v1.368c0,7.64,5.836,13.913,13.3,14.608c0.448,0.035,0.908,0.059,1.368,0.059h31.834
	c-0.46,0-0.92-0.024-1.368-0.059C207.749,102.895,201.914,96.623,201.914,88.982z"/>
<path style="fill:#FD6568;" d="M326.291,326.312v68.007h-53.269v-22.543c0-4.634-1.886-8.831-4.928-11.873
	c-3.042-3.03-7.239-4.917-11.873-4.917c-9.267,0-16.801,7.522-16.801,16.79v22.543H186.15v-68.007l20.044-5.046l63.173-15.894
	L326.291,326.312z"/>
<path style="fill:#C0E8F6;" d="M364.363,227.815h-0.012l-38.06,38.06v60.438H186.15v-60.438l-38.06-38.06l13.571-18.122
	c7.711-10.281,17.615-18.452,28.816-24.064c11.177-5.6,23.663-8.631,36.527-8.631v19.289c0,7.735,3.136,14.738,8.206,19.808
	c5.07,5.07,12.073,8.206,19.808,8.206c15.469,0,28.014-12.533,28.014-28.014v-19.289h2.405c25.715,0,49.933,12.121,65.354,32.695
	L364.363,227.815z"/>
<polygon style="fill:#E0555C;" points="206.194,321.266 206.194,394.32 186.15,394.32 186.15,326.312 "/>
<path style="fill:#AAD6E2;" d="M206.194,285.918v40.394H186.15v-60.438C197.221,265.875,206.194,274.847,206.194,285.918z"/>
<path style="fill:#E0555C;" d="M293.065,391.832v2.488h-20.044v-22.543c0-4.634-1.886-8.831-4.928-11.873
	c-3.042-3.03-7.239-4.917-11.873-4.917l0,0C276.569,354.987,293.065,371.483,293.065,391.832z"/>
<path style="fill:#AAD6E2;" d="M227.004,176.998v13.618l0,0c-16.312,0-31.861,6.907-42.797,19.011l-25.776,28.528l-10.34-10.34
	l13.571-18.122c7.711-10.281,17.615-18.452,28.816-24.064C201.655,180.028,214.141,176.998,227.004,176.998z"/>
<g>
</g>
<g>
</g>
<g>
</g>
<g>
</g>
<g>
</g>
<g>
</g>
<g>
</g>
<g>
</g>
<g>
</g>
<g>
</g>
<g>
</g>
<g>
</g>
<g>
</g>
<g>
</g>
<g>
</g>
</svg>
