<?xml version="1.0" encoding="iso-8859-1"?>
<!-- Generator: Adobe Illustrator 19.0.0, SVG Export Plug-In . SVG Version: 6.00 Build 0)  -->
<svg version="1.1" id="Layer_1" xmlns="http://www.w3.org/2000/svg" xmlns:xlink="http://www.w3.org/1999/xlink" x="0px" y="0px"
	 viewBox="0 0 512 512" style="enable-background:new 0 0 512 512;" xml:space="preserve">
<g>
	<path style="fill:#EFBF8B;" d="M324.928,347.32v88.028c0,7.12-2.891,13.553-7.541,18.227c-4.771,4.747-11.372,7.662-18.673,7.529
		c-14.143-0.241-25.299-12.18-25.299-26.323V347.32l25.961-23.528L324.928,347.32z"/>
	<path style="fill:#EFBF8B;" d="M240.924,347.32v88.028c0,14.541-12.035,26.275-26.696,25.745
		c-13.951-0.494-24.817-12.384-24.817-26.359v-55.597l-0.024-31.816h0.024l24.431-21.118L240.924,347.32z"/>
</g>
<g>
	<path style="fill:#E5AE7B;" d="M204.388,434.796v-87.22l16.92-16.503l-7.961-6.686l-23.775,23.189v87.219
		c0,13.937,10.836,25.81,24.763,26.296c2.923,0.106,5.738-0.284,8.378-1.081C212.025,456.735,204.388,446.495,204.388,434.796z"/>
	<path style="fill:#E5AE7B;" d="M288.231,434.795v-87.219l16.92-16.503l-7.961-6.686l-23.775,23.189v87.219
		c0,13.937,10.836,25.81,24.763,26.298c2.923,0.106,5.738-0.284,8.378-1.081C295.867,456.735,288.231,446.494,288.231,434.795z"/>
</g>
<path style="fill:#C0E8F6;" d="M324.928,281.555v65.765h-51.513v-21.793c0-4.494-1.831-8.541-4.759-11.481
	c-2.735-2.723-6.409-4.482-10.493-4.722c-0.699-0.048-1.422-0.048-2.144,0c-8.578,0.59-15.095,8.023-15.095,16.637v21.359h-51.537
	l-0.024-26.275v-39.49h0.048l14.975-7.71l50.417-25.949L324.928,281.555z"/>
<path style="fill:#FD6568;" d="M350.01,147.797l-19.311,28.684c-3.759,5.578-5.771,12.155-5.771,18.89v86.185H189.363v-86.185
	c0-6.734-2.012-13.312-5.771-18.89l-18.986-28.19l0.735-0.494l4.747-21.347l8.132-36.647c9.445,27.214,29.298,34.009,59.717,34.009
	c31.346,0,75.921-11.252,84.607-39.755L350.01,147.797z"/>
<path style="fill:#EFBF8B;" d="M408.427,61.07l-58.416,86.727l-27.467-27.455c-8.686,28.503-35.189,49.248-66.536,49.248
	c-30.419,0-56.272-19.528-65.717-46.743l-13.541,13.541l-2.261,13.926l-9.882-2.024L105.853,61.07
	c-6.951-9.3-6.686-21.757-0.157-30.672c1.458-2,3.241-3.819,5.337-5.385c4.638-3.47,10.059-5.144,15.42-5.144
	c7.843,0,15.577,3.566,20.637,10.324l8.349,10.782l22.106,28.552c-2.289,2.614,159.66,3.843,158.057,1.47l23.251-30.033l8.337-10.77
	c5.06-6.758,12.806-10.324,20.649-10.324c5.361,0,10.782,1.675,15.42,5.144C414.631,33.544,416.956,49.686,408.427,61.07z"/>
<path style="fill:#E5AE7B;" d="M176.75,136.388l-11.409,11.409l-0.735,0.494L105.853,61.07c-6.951-9.3-6.686-21.757-0.157-30.672
	L176.75,136.388z"/>
<rect x="51.2" y="31.322" style="fill:#606275;" width="409.6" height="15.661"/>
<g>
	<rect x="452.969" style="fill:#808080;" width="15.661" height="512"/>
	<rect x="43.369" style="fill:#808080;" width="15.661" height="512"/>
</g>
<path style="fill:#666666;" d="M315.629,64.383l-62.71,11.566L196.41,64.383c6.868-11.493,16.963-20.837,29.027-26.773
	c9.228-4.539,19.598-7.09,30.583-7.09s21.355,2.55,30.583,7.09C298.666,43.547,308.761,52.89,315.629,64.383z"/>
<path style="fill:#E5AE7B;" d="M231.404,165.093c-26.17-9.927-44.774-35.228-44.774-64.879c0-2.032,0.084-4.043,0.265-6.021
	c0.646,0.095,1.301,0.137,1.968,0.137l63.37-10.844l70.908,10.844c0.677,0,1.334-0.042,1.979-0.137
	c0.179,1.979,0.265,3.99,0.265,6.021c0,29.651-18.603,54.954-44.774,64.879c-7.64,2.911-15.937,4.497-24.604,4.497
	C247.341,169.59,239.044,168.003,231.404,165.093z"/>
<path style="fill:#EFBF8B;" d="M325.481,99.897c0,29.651-18.593,54.954-44.763,64.879c-3.979,1.513-8.138,2.667-12.434,3.429
	c-4.296-0.752-8.455-1.915-12.434-3.429h-0.011c-26.17-9.927-44.774-35.228-44.774-64.879c0-2.032,0.084-4.043,0.265-6.021
	c0.646,0.095,1.312,0.137,1.979,0.137l52.848-13.969l57.091,13.969c0.666,0,1.323-0.042,1.969-0.137
	C325.396,95.855,325.481,97.865,325.481,99.897z"/>
<path style="fill:#7D7878;" d="M315.714,64.383l-49.493,10l-45.387-10c10.127-16.953,27.281-29.229,47.44-32.784
	C288.432,35.155,305.586,47.429,315.714,64.383z"/>
<path style="fill:#EAD26C;" d="M177.731,69.451c2.699-3.112,6.698-5.069,11.144-5.069h7.534h119.22h7.525
	c4.085,0,7.788,1.661,10.476,4.338c0.666,0.666,1.27,1.397,1.809,2.19c1.588,2.36,2.529,5.218,2.529,8.286
	c0,7.514-5.587,13.714-12.836,14.678c-0.646,0.095-1.312,0.137-1.979,0.137H188.875c-0.666,0-1.323-0.042-1.969-0.137
	c-3.312-0.434-6.264-1.958-8.508-4.201c-2.677-2.688-4.338-6.392-4.338-10.476C174.06,75.472,175.445,72.066,177.731,69.451z"/>
<path style="fill:#FEE572;" d="M337.968,79.197c0,7.514-5.577,13.714-12.836,14.678c-0.646,0.095-1.301,0.137-1.979,0.137H210.748
	c-0.666,0-1.323-0.042-1.968-0.137c-3.312-0.434-6.264-1.958-8.508-4.201c-2.677-2.677-4.338-6.381-4.338-10.476
	c0-8.18,6.636-14.815,14.815-14.815h112.405c4.095,0,7.799,1.661,10.476,4.339C336.318,71.409,337.968,75.113,337.968,79.197z"/>
<polygon style="fill:#AAD6E2;" points="204.386,273.845 204.386,347.32 189.387,347.32 189.363,321.046 189.363,281.555 
	189.411,281.555 "/>
<path style="fill:#E0555C;" d="M204.386,177.625v103.93h-15.023v-86.185c0-6.734-2.012-13.312-5.771-18.89l-18.986-28.19
	l0.735-0.494l11.409-11.409L204.386,177.625z"/>
<path style="fill:#AAD6E2;" d="M288.233,334.699v12.623h-14.818v-21.793c0-4.494-1.831-8.541-4.759-11.481
	c-2.735-2.723-6.409-4.482-10.493-4.722h4.696C276.873,309.324,288.233,320.684,288.233,334.699z"/>
<g>
</g>
<g>
</g>
<g>
</g>
<g>
</g>
<g>
</g>
<g>
</g>
<g>
</g>
<g>
</g>
<g>
</g>
<g>
</g>
<g>
</g>
<g>
</g>
<g>
</g>
<g>
</g>
<g>
</g>
</svg>
