<?xml version="1.0" encoding="iso-8859-1"?>
<!-- Generator: Adobe Illustrator 19.0.0, SVG Export Plug-In . SVG Version: 6.00 Build 0)  -->
<svg version="1.1" id="Layer_1" xmlns="http://www.w3.org/2000/svg" xmlns:xlink="http://www.w3.org/1999/xlink" x="0px" y="0px"
	 viewBox="0 0 512 512" style="enable-background:new 0 0 512 512;" xml:space="preserve">
<path style="fill:#EFBF8B;" d="M462.697,279.846c9.345,12.483,7.604,30.391-4.548,40.174c-12.744,10.28-31.362,7.852-41.086-5.14
	l-51.414-68.647l3.754-41.134l37.344,0.036L462.697,279.846z"/>
<path style="fill:#E5AE7B;" d="M365.649,246.233l51.414,68.647c7.527,10.058,20.383,13.778,31.719,10.18
	c-5.539-1.748-10.604-5.177-14.349-10.18l-75.252-101.205"/>
<g>
	<path style="fill:#EFBF8B;" d="M365.649,384.924v98.304c0,7.947-3.222,15.136-8.421,20.348c-5.318,5.306-12.697,8.551-20.845,8.421
		c-15.788-0.272-28.259-13.609-28.259-29.408v-97.664l28.413-18.453L365.649,384.924z"/>
	<path style="fill:#EFBF8B;" d="M271.846,384.924v98.304c0,16.238-13.443,29.337-29.811,28.745
		c-15.586-0.545-27.715-13.834-27.715-29.432v-97.617l33.98-20.229L271.846,384.924z"/>
</g>
<g>
	<path style="fill:#E5AE7B;" d="M231.009,482.541v-97.617l18.937-18.472l-8.91-7.483l-26.608,25.955v97.617
		c0,15.598,12.128,28.887,27.715,29.432c3.271,0.118,6.423-0.319,9.377-1.209C239.555,507.095,231.009,495.634,231.009,482.541z"/>
	<path style="fill:#E5AE7B;" d="M324.812,482.541v-97.617l18.937-18.472l-8.91-7.483l-26.608,25.955v97.617
		c0,15.598,12.128,28.887,27.715,29.432c3.271,0.118,6.423-0.319,9.377-1.209C333.358,507.095,324.812,495.634,324.812,482.541z"/>
</g>
<path style="fill:#EFBF8B;" d="M168.284,211.744l12.199-16.297l31.374,11.998l2.464,38.789l-17.375,23.202
	c-9.44,12.614-27.336,15.184-39.949,5.732l-44.047-35.413c-7.545-5.65-11.524-14.295-11.524-23.048
	c0-6.005,1.871-12.045,5.744-17.221c9.522-12.72,27.549-15.302,40.269-5.78L168.284,211.744z"/>
<g>
	<path style="fill:#E5AE7B;" d="M174.367,275.167l-44.047-35.413c-7.545-5.65-11.524-14.295-11.524-23.048
		c0-6.005,1.871-12.045,5.744-17.221c3.745-5.003,8.808-8.43,14.345-10.177c-11.337-3.595-24.185,0.117-31.715,10.177
		c-3.873,5.176-5.744,11.216-5.744,17.221c0,8.753,3.98,17.399,11.524,23.048l44.047,35.413c7.672,5.749,17.297,7.042,25.785,4.341
		C179.832,278.564,176.985,277.129,174.367,275.167z"/>
	<path style="fill:#E5AE7B;" d="M284.424,102.946c9.7,0,11.583,3.849,20.134,0.592l14.378,46.724l18.784,33.814
		c0,16.712-40.731,59.219-57.443,59.219c-8.35,0-33.613-24.138-39.085-29.61c-5.472-5.472-3.553-27.762-3.553-36.124l20.798-27.3
		l-7.177-33.696C259.813,119.824,274.724,102.946,284.424,102.946z"/>
</g>
<path style="fill:#FEE572;" d="M365.649,355.587v29.337h-57.525v-24.339c0-5.01-2.037-9.534-5.318-12.815
	c-3.553-3.553-8.587-5.65-14.094-5.271c-9.582,0.651-16.866,8.966-16.866,18.571v23.853h-57.525v-29.337v-44.095l70.104-36.218
	l81.225,36.218V355.587z"/>
<path style="fill:#FD6568;" d="M406.747,205.135l-41.098,41.098v65.259H214.321v-65.259l-24.919-37.403l-8.859-13.289l-0.059-0.095
	l7.391-9.878c8.326-11.11,19.021-19.933,31.114-25.985c12.081-6.052,25.559-9.321,39.452-9.321v20.833
	c0,8.362,3.387,15.918,8.859,21.39c5.472,5.472,13.04,8.859,21.39,8.859c16.712,0,30.249-13.537,30.249-30.249v-20.833h2.594
	c27.774,0,53.913,13.087,70.565,35.306L406.747,205.135z"/>
<path style="fill:#7D7878;" d="M133.356,273.521c0,12.258-4.891,23.368-12.839,31.469c-8.172,8.35-19.566,13.537-32.168,13.537
	c-24.86,0-45.007-20.146-45.007-45.007c0-18.69,11.394-34.714,27.62-41.513c5.353-2.25,11.228-3.494,17.387-3.494
	c6.514,0,12.708,1.398,18.299,3.897l7.995-12.472l3.447-5.377c2.025-3.162,6.242-4.086,9.404-2.061
	c0.071,0.047,0.13,0.083,0.19,0.13c3.008,2.073,3.849,6.182,1.871,9.286l-11.441,17.86
	C127.458,248.021,133.356,260.078,133.356,273.521z"/>
<g>
	<path style="fill:#666666;" d="M103.155,308.46c6.159,0,12.021-1.232,17.363-3.47c-8.172,8.35-19.566,13.537-32.168,13.537
		c-24.86,0-45.007-20.146-45.007-45.007c0-18.69,11.394-34.714,27.62-41.513c-7.935,8.113-12.815,19.211-12.815,31.445
		C58.148,288.314,78.294,308.46,103.155,308.46z"/>
	<path style="fill:#666666;" d="M355.404,37.9l-70.941,21.026L221.972,37.9C235.521,15.207,260.322,0,288.688,0
		S341.855,15.207,355.404,37.9z"/>
</g>
<path style="fill:#E5AE7B;" d="M261.151,150.263c-29.29-11.109-50.111-39.428-50.111-72.614c0-2.274,0.095-4.524,0.296-6.739
	c0.722,0.107,1.457,0.154,2.203,0.154l70.924-12.136l79.362,12.136c0.758,0,1.492-0.047,2.215-0.154
	c0.201,2.215,0.296,4.465,0.296,6.739c0,33.186-20.821,61.505-50.111,72.614c-8.551,3.257-17.837,5.034-27.537,5.034
	C278.988,155.296,269.702,153.52,261.151,150.263z"/>
<path style="fill:#EFBF8B;" d="M366.431,77.648c0,33.186-20.81,61.505-50.099,72.614c-4.453,1.694-9.108,2.985-13.916,3.837
	c-4.809-0.841-9.463-2.144-13.917-3.837h-0.012c-29.29-11.109-50.111-39.428-50.111-72.614c0-2.274,0.095-4.524,0.296-6.739
	c0.722,0.107,1.469,0.154,2.215,0.154l59.148-15.634l63.897,15.634c0.746,0,1.48-0.047,2.203-0.154
	C366.336,73.124,366.431,75.374,366.431,77.648z"/>
<path style="fill:#7D7878;" d="M355.499,37.9l-55.394,11.192L249.307,37.9c11.335-18.974,30.533-32.713,53.096-36.692
	C324.966,5.188,344.164,18.926,355.499,37.9z"/>
<path style="fill:#EAD26C;" d="M380.407,54.482c0,8.409-6.242,15.35-14.367,16.427c-0.722,0.107-1.457,0.154-2.215,0.154H213.539
	c-0.746,0-1.48-0.047-2.203-0.154c-3.707-0.486-7.012-2.191-9.522-4.702c-2.996-2.996-4.856-7.142-4.856-11.725
	c0-9.155,7.426-16.581,16.581-16.581h150.286c4.584,0,8.729,1.859,11.725,4.856C378.559,45.765,380.407,49.91,380.407,54.482z"/>
<path style="fill:#FEE572;" d="M380.407,54.482c0,8.409-6.242,15.35-14.367,16.427c-0.722,0.107-1.457,0.154-2.215,0.154H238.02
	c-0.746,0-1.48-0.047-2.203-0.154c-3.707-0.486-7.012-2.191-9.522-4.702c-2.996-2.996-4.856-7.142-4.856-11.725
	c0-9.155,7.426-16.581,16.581-16.581h125.805c4.584,0,8.729,1.859,11.725,4.856C378.559,45.765,380.407,49.91,380.407,54.482z"/>
<circle style="fill:#999999;" cx="112.883" cy="259.084" r="7.896"/>
<polygon style="fill:#EAD26C;" points="231.044,307.264 231.044,384.924 214.463,384.924 214.463,311.492 "/>
<path style="fill:#E0555C;" d="M214.463,246.059v65.434h16.581V262.64C231.044,253.483,223.62,246.059,214.463,246.059
	L214.463,246.059z"/>
<path style="fill:#EAD26C;" d="M295.203,342.464c16.372,0,29.644,13.272,29.644,29.644v12.816l-0.036,0.012h-16.558v-24.339
	c0-5.01-2.037-9.534-5.318-12.815c-3.281-3.281-7.817-5.318-12.827-5.318L295.203,342.464L295.203,342.464z"/>
<path style="fill:#E0555C;" d="M258.569,150.274v17.872h-0.13c-11.453,0.024-22.61,2.629-32.689,7.45
	c-10.126,4.832-19.187,11.915-26.4,20.881l-9.949,12.353l-8.859-13.289l7.462-9.961c8.326-11.11,19.021-19.933,31.114-25.985
	c12.045-6.029,25.476-9.297,39.321-9.321H258.569z"/>
<polygon style="fill:#E5AE7B;" points="189.401,208.83 180.727,222.361 168.284,211.744 180.542,195.541 "/>
<g>
</g>
<g>
</g>
<g>
</g>
<g>
</g>
<g>
</g>
<g>
</g>
<g>
</g>
<g>
</g>
<g>
</g>
<g>
</g>
<g>
</g>
<g>
</g>
<g>
</g>
<g>
</g>
<g>
</g>
</svg>
