<?xml version="1.0" encoding="iso-8859-1"?>
<!-- Generator: Adobe Illustrator 19.0.0, SVG Export Plug-In . SVG Version: 6.00 Build 0)  -->
<svg version="1.1" id="Layer_1" xmlns="http://www.w3.org/2000/svg" xmlns:xlink="http://www.w3.org/1999/xlink" x="0px" y="0px"
	 viewBox="0 0 512.001 512.001" style="enable-background:new 0 0 512.001 512.001;" xml:space="preserve">
<path style="fill:#EFBF8B;" d="M175.81,327.26l42.181,23.465l-21.125,23.371h-81.858c-12.937,0-23.418-10.481-23.418-23.418
	c0-6.469,2.62-12.329,6.855-16.563s10.095-6.855,16.563-6.855L175.81,327.26L175.81,327.26z"/>
<path style="fill:#E5AE7B;" d="M115.559,360.601h79.452l15.033-15.414l6.09,7.252l-21.124,21.658h-79.451
	c-12.695,0-23.512-9.871-23.955-22.557c-0.096-2.662,0.259-5.228,0.985-7.631C95.574,353.645,104.903,360.601,115.559,360.601z"/>
<path style="fill:#EFBF8B;" d="M318.622,408.615v79.975c0,6.469-2.62,12.317-6.855,16.552c-4.328,4.328-10.329,6.96-16.961,6.855
	c-12.855-0.222-22.985-11.077-22.985-23.921v-66.499c0-4.328-0.585-8.527-1.673-12.516l5.159-20.903l16.376,0.585L318.622,408.615z"
	/>
<path style="fill:#E5AE7B;" d="M283.644,488.03v-79.452l15.414-15.033l-7.252-6.09l-21.658,21.124v79.452
	c0,12.695,9.871,23.512,22.557,23.955c2.662,0.096,5.228-0.259,7.631-0.985C290.6,508.015,283.644,498.686,283.644,488.03z"/>
<path style="fill:#666666;" d="M310.307,151.639l-57.125,10.537l-51.477-10.537c6.256-10.469,15.452-18.981,26.442-24.389
	c8.406-4.135,17.852-6.458,27.86-6.458c10.006,0,19.453,2.323,27.86,6.458C294.855,132.657,304.051,141.169,310.307,151.639z"/>
<path style="fill:#7D7878;" d="M310.384,151.639l-45.085,9.11l-41.345-9.11c9.226-15.443,24.851-26.626,43.215-29.864
	C285.533,125.013,301.159,136.196,310.384,151.639z"/>
<path style="fill:#FEE572;" d="M318.622,332.688v75.927H271.81l-1.661,0.444c-5.486-20.155-23.909-34.963-45.807-34.963h-27.477
	l-6.071-13.499l-14.984-33.337h19.64l79.331-20.4L318.622,332.688z"/>
<path style="fill:#FD6568;" d="M341.409,227.341l-17.546,26.05c-3.416,5.077-5.24,11.054-5.24,17.172v62.125l-110.973-4.889
	l-12.2-0.538v-56.697c0-6.118-1.825-12.095-5.24-17.172l-17.242-25.605l-0.047-20.856l-0.07-25.711
	c8.562,24.717,55.516,29.723,83.156,29.723c28.483,0,61.13-2.761,69.014-28.659L341.409,227.341z"/>
<g>
	<rect x="376.772" style="fill:#FEE572;" width="13.257" height="56.147"/>
	<rect x="121.969" style="fill:#FEE572;" width="13.257" height="56.147"/>
</g>
<path style="fill:#EFBF8B;" d="M398.527,139.939c-0.725,3.03-2.059,5.954-4.036,8.598l-53.083,78.805l-24.962-24.962
	c-7.884,25.898-31.957,44.754-60.44,44.754c-27.641,0-51.141-17.757-59.703-42.473l-15.054,15.054l-7.627,7.627l-0.655,0.445
	l-53.375-79.25c-1.965-2.62-3.299-5.509-4.024-8.504c-0.784-3.264-0.854-6.632-0.234-9.884c0.491-2.585,1.415-5.088,2.761-7.404
	c1.532-2.644,3.603-5.018,6.2-6.96c3.322-2.492,7.089-3.954,10.925-4.457c1.018-0.14,2.047-0.211,3.076-0.211
	c5.077,0,10.107,1.638,14.247,4.808c1.673,1.275,3.193,2.796,4.503,4.562l27.676,35.747c-2.082,2.363,75.963,7.428,75.963,7.428
	s69.085-3.954,67.634-6.106l28.705-37.069c0.912-1.217,1.918-2.316,2.995-3.31c4.387-3.977,10.048-6.059,15.756-6.059
	c4.878,0,9.802,1.521,14.013,4.667C397.474,121.551,400.621,131.142,398.527,139.939z"/>
<path style="fill:#E5AE7B;" d="M233.593,243.091c-23.839-9.042-40.786-32.091-40.786-59.102c0-1.851,0.077-3.682,0.241-5.485
	c0.588,0.087,1.186,0.125,1.793,0.125l57.726-9.877l64.593,9.877c0.616,0,1.214-0.039,1.803-0.125
	c0.164,1.803,0.241,3.634,0.241,5.485c0,27.01-16.947,50.06-40.786,59.102c-6.96,2.651-14.518,4.096-22.412,4.096
	C248.111,247.188,240.553,245.741,233.593,243.091z"/>
<path style="fill:#EFBF8B;" d="M319.282,183.99c0,27.01-16.937,50.06-40.777,59.102c-3.625,1.378-7.413,2.43-11.327,3.123
	c-3.914-0.684-7.703-1.745-11.327-3.123h-0.009c-23.839-9.042-40.786-32.091-40.786-59.102c0-1.851,0.077-3.682,0.241-5.485
	c0.588,0.087,1.195,0.125,1.803,0.125l48.142-12.724l52.006,12.724c0.607,0,1.205-0.039,1.793-0.125
	C319.205,180.306,319.282,182.138,319.282,183.99z"/>
<path style="fill:#EAD26C;" d="M184.691,156.256c2.458-2.834,6.103-4.617,10.151-4.617h6.864h108.602h6.853
	c3.721,0,7.094,1.514,9.544,3.953c0.607,0.607,1.157,1.273,1.648,1.996c1.446,2.15,2.304,4.753,2.304,7.548
	c0,6.844-5.09,12.493-11.693,13.37c-0.588,0.087-1.195,0.125-1.803,0.125H194.843c-0.607,0-1.205-0.039-1.793-0.125
	c-3.017-0.395-5.707-1.784-7.751-3.827c-2.439-2.448-3.953-5.823-3.953-9.544C181.346,161.74,182.609,158.637,184.691,156.256z"/>
<path style="fill:#FEE572;" d="M330.657,165.134c0,6.844-5.08,12.493-11.693,13.37c-0.588,0.087-1.186,0.125-1.803,0.125H214.768
	c-0.607,0-1.205-0.039-1.793-0.125c-3.017-0.395-5.707-1.784-7.751-3.827c-2.439-2.439-3.953-5.812-3.953-9.544
	c0-7.451,6.044-13.495,13.495-13.495H317.16c3.73,0,7.105,1.514,9.544,3.953C329.154,158.039,330.657,161.413,330.657,165.134z"/>
<path style="fill:#EAD26C;" d="M235.665,360.598c26.5,0,47.983,21.482,47.983,47.983l0,0l-0.105,0.035H271.81l-1.661,0.444
	c-5.486-20.155-23.909-34.963-45.807-34.963h-27.477l-6.071-13.499L235.665,360.598L235.665,360.598z"/>
<path style="fill:#E0555C;" d="M207.65,276.624v51.175l-12.2-0.538v-56.697c0-6.118-1.825-12.095-5.24-17.172l-17.242-25.605
	l-0.047-20.856l25.806,39.634C204.55,255.509,207.65,265.951,207.65,276.624z"/>
<path style="fill:#E5AE7B;" d="M135.22,111.327L135.22,111.327c-3.837,0.503-7.603,1.965-10.925,4.457
	c-2.597,1.942-4.667,4.316-6.2,6.96c-0.357,0.614-0.68,1.243-0.977,1.881c-0.111,0.237-0.202,0.483-0.304,0.724
	c-0.174,0.409-0.347,0.818-0.497,1.235c-0.102,0.283-0.187,0.571-0.278,0.856c-0.122,0.384-0.241,0.769-0.342,1.158
	c-0.081,0.308-0.149,0.616-0.216,0.926c-0.046,0.208-0.106,0.414-0.146,0.623l0.019,0.029c-0.613,3.241-0.571,6.602,0.215,9.855
	c0.725,2.995,2.059,5.884,4.024,8.504l53.375,79.25l0.655-0.445l7.627-7.627l-37.874-58.902
	C133.946,146.15,130.995,128.242,135.22,111.327z"/>
<g>
	<path style="fill:#C0E8F6;" d="M383.405,150.7c-27.627,0-50.103-22.476-50.103-50.103s22.476-50.103,50.103-50.103
		c27.628,0,50.104,22.476,50.104,50.103S411.033,150.7,383.405,150.7z M383.405,63.361c-20.532,0-37.236,16.705-37.236,37.236
		s16.704,37.236,37.236,37.236c20.534,0,37.237-16.704,37.237-37.236S403.938,63.361,383.405,63.361z"/>
	<path style="fill:#C0E8F6;" d="M128.596,150.7c-27.627,0-50.103-22.476-50.103-50.103s22.476-50.103,50.103-50.103
		c27.628,0,50.104,22.476,50.104,50.103S156.223,150.7,128.596,150.7z M128.596,63.361c-20.532,0-37.236,16.705-37.236,37.236
		s16.704,37.236,37.236,37.236c20.534,0,37.237-16.704,37.237-37.236S149.129,63.361,128.596,63.361z"/>
</g>
<g>
</g>
<g>
</g>
<g>
</g>
<g>
</g>
<g>
</g>
<g>
</g>
<g>
</g>
<g>
</g>
<g>
</g>
<g>
</g>
<g>
</g>
<g>
</g>
<g>
</g>
<g>
</g>
<g>
</g>
</svg>
